<?xml version="1.0" encoding="UTF-8"?>
<svg id="_圖層_2" data-name="圖層 2" xmlns="http://www.w3.org/2000/svg" viewBox="0 0 42.82 42.82">
  <defs>
    <style>
      .cls-1, .cls-2 {
        stroke-width: 0px;
      }

      .cls-2 {
        fill: #fff;
      }
    </style>
  </defs>
  <g id="_圖層_1-2" data-name="圖層 1">
    <g>
      <circle class="cls-1" cx="21.41" cy="21.41" r="21.41"/>
      <path class="cls-2" d="m29.19,21.51c-.03-3.8,3.12-5.65,3.26-5.74-1.78-2.6-4.55-2.96-5.52-2.98-2.32-.24-4.57,1.39-5.76,1.39s-3.03-1.37-4.99-1.33c-2.53.04-4.89,1.5-6.19,3.77-2.68,4.63-.68,11.43,1.88,15.18,1.28,1.83,2.78,3.88,4.74,3.81,1.92-.08,2.63-1.22,4.95-1.22s2.97,1.22,4.97,1.18c2.06-.03,3.36-1.84,4.59-3.69,1.48-2.1,2.08-4.17,2.1-4.28-.05-.02-4-1.52-4.04-6.08h0Zm-3.78-11.19c1.03-1.29,1.74-3.04,1.54-4.83-1.49.07-3.36,1.03-4.44,2.29-.95,1.11-1.8,2.93-1.58,4.65,1.68.13,3.4-.85,4.48-2.12h0Z"/>
    </g>
  </g>
</svg>