<?xml version="1.0" encoding="UTF-8"?>
<svg id="_圖層_2" data-name="圖層 2" xmlns="http://www.w3.org/2000/svg" viewBox="0 0 42.82 42.82">
  <defs>
    <style>
      .cls-1 {
        fill: #1877c0;
      }

      .cls-1, .cls-2 {
        stroke-width: 0px;
      }

      .cls-2 {
        fill: #fff;
      }
    </style>
  </defs>
  <g id="_圖層_1-2" data-name="圖層 1">
    <g>
      <path class="cls-1" d="m42.82,21.41C42.82,9.59,33.24,0,21.41,0S0,9.59,0,21.41c0,10.69,7.83,19.54,18.07,21.15v-14.96h-5.44v-6.19h5.44v-4.72c0-5.37,3.2-8.33,8.09-8.33,2.34,0,4.79.42,4.79.42v5.27h-2.7c-2.66,0-3.49,1.65-3.49,3.34v4.02h5.94l-.95,6.19h-4.99v14.96c10.24-1.61,18.07-10.46,18.07-21.15Z"/>
      <path class="cls-2" d="m29.74,27.6l.95-6.19h-5.94v-4.02c0-1.69.83-3.34,3.49-3.34h2.7v-5.27s-2.45-.42-4.79-.42c-4.89,0-8.09,2.96-8.09,8.33v4.72h-5.44v6.19h5.44v14.96c1.09.17,2.21.26,3.35.26s2.26-.09,3.35-.26v-14.96h4.99Z"/>
    </g>
  </g>
</svg>