<?xml version="1.0" encoding="UTF-8"?>
<svg id="_圖層_2" data-name="圖層 2" xmlns="http://www.w3.org/2000/svg" viewBox="0 0 42.82 42.82">
  <defs>
    <style>
      .cls-1 {
        fill: #2d8f00;
      }

      .cls-1, .cls-2 {
        stroke-width: 0px;
      }

      .cls-2 {
        fill: #fff;
      }
    </style>
  </defs>
  <g id="_圖層_1-2" data-name="圖層 1">
    <g>
      <circle class="cls-1" cx="21.41" cy="21.41" r="21.41"/>
      <g>
        <path class="cls-2" d="m27.46,16.09c-2.92.15-5.45,1.04-7.51,3.04-2.08,2.02-3.03,4.49-2.77,7.56-1.14-.14-2.18-.3-3.22-.38-.36-.03-.79.01-1.09.19-1.01.57-1.99,1.22-3.14,1.94.21-.96.35-1.79.59-2.6.18-.59.1-.92-.45-1.31-3.5-2.47-4.98-6.17-3.87-9.98,1.02-3.52,3.53-5.66,6.94-6.78,4.66-1.52,9.89.03,12.72,3.73,1.02,1.34,1.65,2.83,1.82,4.61Zm-13.43-1.19c.03-.7-.58-1.32-1.29-1.35-.73-.02-1.34.54-1.36,1.26-.02.73.54,1.32,1.28,1.34.73.02,1.35-.54,1.38-1.26Zm7.01-1.35c-.72.01-1.33.63-1.32,1.33.01.73.61,1.29,1.35,1.28.74,0,1.31-.58,1.3-1.32,0-.73-.6-1.3-1.33-1.29Z"/>
        <path class="cls-2" d="m34.02,34.28c-.92-.41-1.77-1.03-2.67-1.12-.9-.09-1.84.42-2.78.52-2.86.29-5.43-.51-7.55-2.46-4.02-3.72-3.45-9.43,1.21-12.48,4.14-2.71,10.21-1.81,13.12,1.95,2.55,3.28,2.25,7.64-.86,10.4-.9.8-1.22,1.45-.65,2.51.11.19.12.44.18.69Zm-10.52-10.18c.59,0,1.07-.46,1.09-1.04.02-.62-.47-1.13-1.09-1.13-.61,0-1.12.52-1.1,1.13.02.58.51,1.05,1.09,1.05Zm6.78-2.17c-.57,0-1.06.46-1.08,1.04-.02.62.45,1.12,1.06,1.12.59,0,1.06-.44,1.08-1.03.02-.62-.46-1.13-1.06-1.13Z"/>
      </g>
    </g>
  </g>
</svg>