<?xml version="1.0" encoding="UTF-8"?>
<svg id="_圖層_2" data-name="圖層 2" xmlns="http://www.w3.org/2000/svg" viewBox="0 0 42.82 42.82">
  <defs>
    <style>
      .cls-1 {
        fill: #b6172d;
      }

      .cls-1, .cls-2 {
        stroke-width: 0px;
      }

      .cls-2 {
        fill: #fff;
      }
    </style>
  </defs>
  <g id="_圖層_1-2" data-name="圖層 1">
    <g>
      <circle class="cls-1" cx="21.41" cy="21.41" r="21.41"/>
      <g>
        <path class="cls-2" d="m18.42,33.05c-.41-.05-.81-.09-1.22-.14-1.9-.22-3.76-.61-5.5-1.43-1.38-.64-2.58-1.51-3.41-2.8-1.18-1.83-1.37-3.76-.59-5.8.54-1.44,1.38-2.69,2.36-3.86,1.41-1.68,2.96-3.21,4.85-4.37,1.12-.69,2.32-1.18,3.64-1.31.35-.04.72-.02,1.07.04.96.17,1.55.89,1.69,1.98.06.41.05.82-.06,1.22-.05.2-.09.4-.11.61-.03.26.1.41.35.38.29-.03.59-.08.86-.19,1.09-.43,2.19-.78,3.38-.82.59-.02,1.16.05,1.68.34.94.52,1.33,1.63.95,2.78-.08.26-.21.51-.33.75-.14.27-.1.47.17.61.13.07.27.11.41.14.9.22,1.7.64,2.34,1.31,1.01,1.04,1.21,2.28.84,3.64-.44,1.61-1.41,2.86-2.71,3.88-1.59,1.24-3.42,2-5.36,2.5-1.06.27-2.15.45-3.24.52-.04,0-.08.02-.13.04h-1.92Zm1.04-12.84c-1.67,0-3.13.21-4.54.69-1.48.51-2.82,1.25-3.85,2.47-1.43,1.7-1.44,3.84,0,5.5.75.86,1.7,1.44,2.75,1.86,1.44.57,2.95.78,4.5.74,1.99-.05,3.85-.54,5.56-1.57,1.11-.67,2.06-1.51,2.69-2.67.7-1.3.82-2.62.07-3.94-.5-.88-1.27-1.48-2.16-1.94-1.63-.84-3.39-1.1-5.01-1.12Z"/>
        <path class="cls-2" d="m35.65,18.01c-.03.17-.06.34-.08.51-.08.64-.61,1.09-1.25,1.05-.64-.04-1.12-.55-1.1-1.2.01-.49.09-.97.08-1.46-.07-3.04-2.49-5.63-5.52-5.91-.2-.02-.41-.03-.61-.04-.68-.01-1.2-.52-1.2-1.18,0-.66.53-1.2,1.22-1.19,2.07.03,3.91.69,5.49,2.04,1.66,1.43,2.64,3.23,2.94,5.41,0,.04.03.09.04.13v1.83Z"/>
        <path class="cls-2" d="m31.89,17.14c-.03.24-.04.48-.09.72-.12.49-.58.79-1.04.73-.52-.07-.88-.47-.86-.98.02-.58,0-1.16-.28-1.69-.51-.94-1.28-1.46-2.36-1.52-.63-.03-1.02-.36-1.08-.9-.05-.53.31-1.02.84-1.06.8-.07,1.56.12,2.27.49,1.68.9,2.51,2.32,2.61,4.22Z"/>
        <path class="cls-2" d="m18.36,22.21c.96.04,1.86.23,2.62.83,1.1.86,1.51,2.02,1.43,3.38-.07,1.19-.7,2.05-1.62,2.73-1.89,1.39-4.29,1.37-6.26.22-.6-.35-.97-.89-1.08-1.57-.19-1.14-.06-2.25.49-3.28.62-1.15,1.62-1.79,2.86-2.07.51-.12,1.03-.16,1.55-.23Zm-1.81,3.59c-.74,0-1.38.42-1.64,1.09-.28.73.06,1.41.82,1.62.7.19,1.54-.09,1.99-.67.47-.62.36-1.4-.25-1.8-.28-.18-.59-.25-.91-.25Zm1.76-.04c0,.33.2.56.5.55.37,0,.71-.36.72-.75,0-.32-.19-.53-.49-.53-.39,0-.72.33-.73.72Z"/>
      </g>
    </g>
  </g>
</svg>